<?xml version="1.0" encoding="UTF-8"?>
<svg xmlns="http://www.w3.org/2000/svg" viewBox="0 0 512 512" fill="none">
  <defs>
    <linearGradient id="rodSky" x1="256" y1="48" x2="256" y2="464" gradientUnits="userSpaceOnUse">
      <stop stop-color="#f5fbff"/>
      <stop stop-color="#c9e4f7"/>
    </linearGradient>
  </defs>
  <rect width="512" height="512" rx="112" fill="url(#rodSky)"/>
  <circle cx="420" cy="108" r="28" fill="#FFD54F" opacity="0.55"/>
  <circle cx="92" cy="400" r="20" fill="#87CEEB" opacity="0.45"/>
  <g transform="translate(136 108) scale(5.2)">
    <circle cx="24" cy="27" r="14" fill="#F4C98D"/>
    <path d="M14 20c1-8 6-12 10-12s9 4 10 12" fill="#FFD54F"/>
    <path d="M16 14c2-5 5-8 8-8s6 3 8 8c-3 1-5 2-8 2s-5-1-8-2z" fill="#F5B800"/>
    <rect x="10" y="24" width="28" height="18" rx="6" fill="#FF7A1A"/>
    <path d="M10 30h28" stroke="#E85D04" stroke-width="1.5"/>
    <rect x="14" y="26" width="8" height="2" rx="1" fill="#FFB347" opacity="0.7"/>
    <path d="M15 22.5h18c2 0 3.5 1.5 3.5 3.5s-1.5 3.5-3.5 3.5H15c-2 0-3.5-1.5-3.5-3.5s1.5-3.5 3.5-3.5z" fill="#1A1A2E"/>
    <rect x="16" y="24" width="6" height="2.5" rx="1" fill="#87CEEB" opacity="0.85"/>
    <rect x="26" y="24" width="6" height="2.5" rx="1" fill="#87CEEB" opacity="0.85"/>
    <path d="M22 33.5c1.5 1.5 4 1.5 5.5 0" stroke="#5C3D1E" stroke-width="1.5" stroke-linecap="round"/>
    <path d="M24 8c3 0 5 2 6 4" stroke="#F5B800" stroke-width="2" stroke-linecap="round"/>
  </g>
  <path d="M388 372l18 10-18 10v-20z" fill="#1a3352" opacity="0.85"/>
  <path d="M372 382h36" stroke="#FFD54F" stroke-width="6" stroke-linecap="round"/>
</svg>
